<svg xmlns="http://www.w3.org/2000/svg" style="width:0; height:0; visibility:hidden;">
    <symbol id="icon_arrow-down" viewBox="0 0 9.97 6">
       <metadata><?xpacket begin="﻿" id="W5M0MpCehiHzreSzNTczkc9d"?> <x:xmpmeta xmlns:x="adobe:ns:meta/" x:xmptk="Adobe XMP Core 5.6-c142 79.160924, 2017/07/13-01:06:39        "> <rdf:RDF xmlns:rdf="http://www.w3.org/1999/02/22-rdf-syntax-ns#"> <rdf:Description rdf:about=""/> </rdf:RDF> </x:xmpmeta> <?xpacket end="w"?></metadata>  <path id="arrow-down" class="cls-1" d="M1165.88,28.1a0.372,0.372,0,0,0-.5,0l-4.39,4.114L1156.6,28.1a0.372,0.372,0,0,0-.5,0,0.328,0.328,0,0,0,0,.467l4.64,4.34a0.351,0.351,0,0,0,.25.1,0.344,0.344,0,0,0,.24-0.1l4.64-4.34A0.32,0.32,0,0,0,1165.88,28.1Z" transform="translate(-1156 -27.5)"/> 
    </symbol>
    <symbol id="icon_bank" viewBox="0 0 21 21">
       <metadata><?xpacket begin="﻿" id="W5M0MpCehiHzreSzNTczkc9d"?> <x:xmpmeta xmlns:x="adobe:ns:meta/" x:xmptk="Adobe XMP Core 5.6-c142 79.160924, 2017/07/13-01:06:39        "> <rdf:RDF xmlns:rdf="http://www.w3.org/1999/02/22-rdf-syntax-ns#"> <rdf:Description rdf:about=""/> </rdf:RDF> </x:xmpmeta> <?xpacket end="w"?></metadata>  <path id="bank" class="cls-1" d="M350,339.783h-1.018v-4.635a2.027,2.027,0,0,0-2.035-2.015h-1.379l-1.41-2.511A1.224,1.224,0,0,0,343.09,330a1.24,1.24,0,0,0-.593.152l-5.414,2.981h-6.047A2.028,2.028,0,0,0,329,335.148v13.837A2.028,2.028,0,0,0,331.036,351h15.911a2.027,2.027,0,0,0,2.035-2.015v-4.064H350v-5.138h0Zm-3.053-5.844a1.214,1.214,0,0,1,1.208,1.075h-1.53l-0.6-1.075h0.926Zm-4.054-3.082a0.417,0.417,0,0,1,.553.156l2.247,4H335.342Zm5.275,18.128a1.217,1.217,0,0,1-1.221,1.209H331.036a1.217,1.217,0,0,1-1.222-1.209V335.148a1.217,1.217,0,0,1,1.222-1.209h4.583l-1.953,1.075H331.29a0.4,0.4,0,1,0,0,.806h16.878v3.963h-2.977a2.5,2.5,0,0,0-2.508,2.483v0.173a2.5,2.5,0,0,0,2.508,2.483h2.977v4.063h0Zm1.018-4.87h-4a1.687,1.687,0,0,1-1.694-1.676v-0.174a1.687,1.687,0,0,1,1.694-1.676h4v3.526Zm-2.748-1.73a0.9,0.9,0,1,1-.9-0.89A0.894,0.894,0,0,1,346.438,342.385Z" transform="translate(-329 -330)"/> 
    </symbol>
    <symbol id="icon_briefcase-no-projects" viewBox="0 0 95 81">
       <!-- Generator: Sketch 43.1 (39012) - http://www.bohemiancoding.com/sketch --> <title>briefcase-no-projects</title> <desc>Created with Sketch.</desc>  <g id="Page-1" stroke="none" stroke-width="1" fill="none" fill-rule="evenodd"> <g id="briefcase-no-projects" transform="translate(1.000000, 0.000000)" stroke="#201600" fill-rule="nonzero" fill="#F3F3F3"> <path d="M66.4,0.5 L26.4,0.5 C23.3,0.5 20.7,3.1 20.7,6.2 L20.7,28.5 C20.7,31.6 23.3,34.2 26.4,34.2 L66.4,34.2 C69.5,34.2 72.1,31.6 72.1,28.5 L72.1,6.2 C72,3.1 69.5,0.5 66.4,0.5 Z M66.8,25.6 C66.8,27.9 64.9,29.8 62.6,29.8 L30.7,29.8 C28.4,29.8 26.5,27.9 26.5,25.6 L26.5,9.1 C26.5,6.8 28.4,4.9 30.7,4.9 L62.6,4.9 C64.9,4.9 66.8,6.8 66.8,9.1 L66.8,25.6 Z" id="Shape"/> <path d="M87,80.2 L5.7,80.2 C2.6,80.2 0,77.6 0,74.5 L0,18.8 C0,15.7 2.6,13.1 5.7,13.1 L87,13.1 C90.1,13.1 92.7,15.7 92.7,18.8 L92.7,74.5 C92.7,77.6 90.2,80.2 87,80.2 Z" id="Shape"/> <path d="M0,46.7 L92.7,46.7" id="Shape"/> <path d="M49.5,53.8 L43.3,53.8 C42,53.8 40.9,52.7 40.9,51.4 L40.9,42.9 C40.9,41.6 42,40.5 43.3,40.5 L49.5,40.5 C50.8,40.5 51.9,41.6 51.9,42.9 L51.9,51.4 C51.9,52.8 50.8,53.8 49.5,53.8 Z" id="Shape"/> </g> </g> 
    </symbol>
    <symbol id="icon_calculations" viewBox="0 0 512 512">
       <g> <g> <path d="M417.684,0H94.316C77.972,0,64.674,13.297,64.674,29.642v452.716c0,16.345,13.298,29.642,29.642,29.642h323.368
			c16.344,0,29.642-13.297,29.642-29.642V29.642C447.326,13.297,434.028,0,417.684,0z M431.158,482.358
			c0,7.43-6.044,13.474-13.474,13.474H94.316c-7.43,0-13.474-6.044-13.474-13.474V29.642c0-7.43,6.044-13.474,13.474-13.474h323.368
			c7.43,0,13.474,6.044,13.474,13.474V482.358z"/> </g> </g> <g> <g> <path d="M323.368,291.032v177.853h80.842V291.032H323.368z M388.042,452.716h-48.505V307.2h48.505V452.716z"/> </g> </g> <g> <g> <path d="M107.789,388.042v80.842h80.842v-80.842H107.789z M172.463,452.716h-48.505v-48.505h48.505V452.716z"/> </g> </g> <g> <g> <path d="M215.579,388.042v80.842h80.842v-80.842H215.579z M280.253,452.716h-48.505v-48.505h48.505V452.716z"/> </g> </g> <g> <g> <path d="M107.789,291.032v80.842h80.842v-80.842H107.789z M172.463,355.705h-48.505V307.2h48.505V355.705z"/> </g> </g> <g> <g> <path d="M215.579,291.032v80.842h80.842v-80.842H215.579z M280.253,355.705h-48.505V307.2h48.505V355.705z"/> </g> </g> <g> <g> <path d="M107.789,194.021v80.842h80.842v-80.842H107.789z M172.463,258.695h-48.505v-48.505h48.505V258.695z"/> </g> </g> <g> <g> <path d="M215.579,194.021v80.842h80.842v-80.842H215.579z M280.253,258.695h-48.505v-48.505h48.505V258.695z"/> </g> </g> <g> <g> <path d="M323.368,194.021v80.842h80.842v-80.842H323.368z M388.042,258.695h-48.505v-48.505h48.505V258.695z"/> </g> </g> <g> <g> <path d="M385.347,97.011H126.653c-10.401,0-18.863,8.463-18.863,18.863v43.116c0,10.401,8.463,18.863,18.863,18.863h258.695
			c10.401,0,18.863-8.463,18.863-18.863v-43.116C404.211,105.473,395.748,97.011,385.347,97.011z M388.042,158.989
			c0,1.485-1.208,2.695-2.695,2.695H126.653c-1.486,0-2.695-1.209-2.695-2.695v-43.116c0-1.485,1.208-2.695,2.695-2.695h258.695
			c1.486,0,2.695,1.209,2.695,2.695V158.989z"/> </g> </g> <g> <g> <path d="M226.358,32.337v48.505h177.853V32.337H226.358z M280.253,64.674h-37.726V48.505h37.726V64.674z M334.147,64.674h-37.726
			V48.505h37.726V64.674z M388.042,64.674h-37.726V48.505h37.726V64.674z"/> </g> </g> <g> <g> <rect x="353.01" y="129.347" width="16.168" height="16.168"/> </g> </g> <g> <g> <rect x="320.674" y="129.347" width="16.168" height="16.168"/> </g> </g> <g> <g> <rect x="288.337" y="129.347" width="16.168" height="16.168"/> </g> </g>                
    </symbol>
    <symbol id="icon_chat" viewBox="0 0 511.999 511.999">
       <g> <g> <path d="M372.29,50.758H28.831C12.933,50.758,0,63.691,0,79.588v206.056c0,15.897,12.933,28.831,28.831,28.831h22.271v76.71
			c0,4.884,2.942,9.289,7.456,11.159c1.494,0.62,3.064,0.92,4.62,0.92c3.144,0,6.232-1.228,8.543-3.538l85.251-85.25h17.104
			c6.671,0,12.078-5.407,12.078-12.078c0-6.672-5.409-12.079-12.078-12.079c0,0-22.69,0.016-22.927,0.04
			c-2.812,0.191-5.572,1.349-7.722,3.498l-68.169,68.169c0,0-0.021-60.392-0.06-60.705c-0.545-6.166-5.717-11.002-12.024-11.002
			H28.831c-2.578,0-4.674-2.097-4.674-4.674V79.588c0-2.578,2.097-4.674,4.674-4.674H372.29c2.578,0,4.674,2.097,4.674,4.674v79.055
			c0,6.671,5.409,12.078,12.078,12.078s12.078-5.407,12.078-12.078V79.588C401.12,63.691,388.187,50.758,372.29,50.758z"/> </g> </g> <g> <g> <path d="M483.169,198.492H242.754c-15.897,0-28.831,12.933-28.831,28.831v140.57c0,15.897,12.933,28.831,28.831,28.831h150.514
			l60.98,60.98c2.311,2.311,5.4,3.538,8.543,3.538c1.556,0,3.126-0.301,4.62-0.92c4.512-1.87,7.456-6.273,7.456-11.159v-52.44h8.301
			c15.897,0,28.831-12.933,28.831-28.831V227.322C512,211.425,499.067,198.492,483.169,198.492z M487.844,367.893
			c0,2.577-2.097,4.674-4.674,4.674h-20.376c-6.356,0-11.554,4.912-12.031,11.147c-0.031,0.264-0.051,36.29-0.051,36.29
			l-43.854-43.855c-0.046-0.046-0.094-0.089-0.14-0.135c-0.172-0.168-0.335-0.314-0.489-0.445c-2.126-1.864-4.903-3.003-7.951-3.003
			H242.754c-2.578,0-4.674-2.097-4.674-4.674v-140.57c0-2.578,2.097-4.674,4.674-4.674h240.416c2.577,0,4.674,2.097,4.674,4.674
			V367.893z"/> </g> </g> <g> <g> <path d="M362.964,285.53c-6.667,0-12.078,5.411-12.078,12.078c0,6.667,5.411,12.078,12.078,12.078
			c6.668,0,12.078-5.411,12.078-12.078C375.042,290.941,369.631,285.53,362.964,285.53z"/> </g> </g> <g> <g> <path d="M310.472,130.611c0,0-219.822,0-219.822,0c-6.67,0-12.078,5.407-12.078,12.078s5.409,12.078,12.078,12.078h219.822
			c6.67,0,12.078-5.407,12.078-12.078S317.142,130.611,310.472,130.611z"/> </g> </g> <g> <g> <path d="M174.075,210.465H90.65c-6.67,0-12.078,5.407-12.078,12.078c0,6.671,5.409,12.078,12.078,12.078h83.425
			c6.671,0,12.078-5.407,12.078-12.078S180.745,210.465,174.075,210.465z"/> </g> </g> <g> <g> <path d="M306.837,285.53c-6.666,0-12.078,5.411-12.078,12.078c0,6.667,5.412,12.078,12.078,12.078
			c6.668,0,12.078-5.411,12.078-12.078C318.915,290.941,313.505,285.53,306.837,285.53z"/> </g> </g> <g> <g> <path d="M419.079,285.53c-6.667,0-12.078,5.411-12.078,12.078c0,6.667,5.411,12.078,12.078,12.078
			c6.668,0,12.078-5.411,12.078-12.078C431.157,290.941,425.746,285.53,419.079,285.53z"/> </g> </g>                
    </symbol>
    <symbol id="icon_check" viewBox="0 0 512 512">
       <g> <g> <path d="M468.907,214.604c-11.423,0-20.682,9.26-20.682,20.682v20.831c-0.031,54.338-21.221,105.412-59.666,143.812
			c-38.417,38.372-89.467,59.5-143.761,59.5c-0.04,0-0.08,0-0.12,0C132.506,459.365,41.3,368.056,41.364,255.883
			c0.031-54.337,21.221-105.411,59.667-143.813c38.417-38.372,89.468-59.5,143.761-59.5c0.04,0,0.08,0,0.12,0
			c28.672,0.016,56.49,5.942,82.68,17.611c10.436,4.65,22.659-0.041,27.309-10.474c4.648-10.433-0.04-22.659-10.474-27.309
			c-31.516-14.043-64.989-21.173-99.492-21.192c-0.052,0-0.092,0-0.144,0c-65.329,0-126.767,25.428-172.993,71.6
			C25.536,129.014,0.038,190.473,0,255.861c-0.037,65.386,25.389,126.874,71.599,173.136c46.21,46.262,107.668,71.76,173.055,71.798
			c0.051,0,0.092,0,0.144,0c65.329,0,126.767-25.427,172.993-71.6c46.262-46.209,71.76-107.668,71.798-173.066v-20.842
			C489.589,223.864,480.33,214.604,468.907,214.604z"/> </g> </g> <g> <g> <path d="M505.942,39.803c-8.077-8.076-21.172-8.076-29.249,0L244.794,271.701l-52.609-52.609c-8.076-8.077-21.172-8.077-29.248,0
			c-8.077,8.077-8.077,21.172,0,29.249l67.234,67.234c4.038,4.039,9.332,6.058,14.625,6.058c5.293,0,10.586-2.019,14.625-6.058
			L505.942,69.052C514.019,60.975,514.019,47.88,505.942,39.803z"/> </g> </g>                
    </symbol>
    <symbol id="icon_civil-law" viewBox="0 0 512 512">
       <g> <g> <path d="M469.333,115.2H384V64c0-14.138-11.461-25.6-25.6-25.6H153.6C139.461,38.4,128,49.861,128,64v51.2H42.667
			C19.103,115.2,0,134.303,0,157.867v273.067C0,454.498,19.103,473.6,42.667,473.6h426.667c23.564,0,42.667-19.102,42.667-42.667
			V157.867C512,134.303,492.898,115.2,469.333,115.2z M145.067,64c0-4.713,3.821-8.533,8.533-8.533h204.8
			c4.713,0,8.533,3.82,8.533,8.533v51.2h-17.067V81.067c0-4.713-3.82-8.533-8.533-8.533H170.667c-4.713,0-8.533,3.82-8.533,8.533
			V115.2h-17.067V64z M332.8,89.6v25.6H179.2V89.6H332.8z M494.933,430.933c0,14.138-11.461,25.6-25.6,25.6H42.667
			c-14.138,0-25.6-11.462-25.6-25.6v-128h204.8V320c0,14.138,11.461,25.6,25.6,25.6h17.067c14.138,0,25.6-11.462,25.6-25.6v-17.067
			h204.8V430.933z M238.933,320v-25.6v-25.6c0-4.713,3.82-8.533,8.533-8.533h17.067c4.713,0,8.533,3.82,8.533,8.533V320
			c0,4.713-3.821,8.533-8.533,8.533h-17.067C242.754,328.533,238.933,324.713,238.933,320z M494.933,285.867h-204.8V268.8
			c0-14.138-11.462-25.6-25.6-25.6h-17.067c-14.138,0-25.6,11.462-25.6,25.6v17.067h-204.8v-128c0-14.138,11.462-25.6,25.6-25.6
			h426.667c14.138,0,25.6,11.461,25.6,25.6V285.867z"/> </g> </g>                
    </symbol>
    <symbol id="icon_family-law" viewBox="0 0 60 60">
       <g> <path d="M45,25H20c-0.552,0-1,0.447-1,1s0.448,1,1,1h25c0.552,0,1-0.447,1-1S45.552,25,45,25z"/> <path d="M20,19h10c0.552,0,1-0.447,1-1s-0.448-1-1-1H20c-0.552,0-1,0.447-1,1S19.448,19,20,19z"/> <path d="M45,33H20c-0.552,0-1,0.447-1,1s0.448,1,1,1h25c0.552,0,1-0.447,1-1S45.552,33,45,33z"/> <path d="M45,41H20c-0.552,0-1,0.447-1,1s0.448,1,1,1h25c0.552,0,1-0.447,1-1S45.552,41,45,41z"/> <path d="M45,49H20c-0.552,0-1,0.447-1,1s0.448,1,1,1h25c0.552,0,1-0.447,1-1S45.552,49,45,49z"/> <path d="M49,14.586V0H6v55h5v5h43V19.586L49,14.586z M40,8.414l9,9L50.586,19H40V8.414z M8,53V2h39v10.586L39.414,5H11v48H8z
		 M13,58v-3V7h25v14h14v37H13z"/> </g>                
    </symbol>
    <symbol id="icon_hands" viewBox="0 0 103 93">
       <!-- Generator: Sketch 43.1 (39012) - http://www.bohemiancoding.com/sketch --> <title>Group</title> <desc>Created with Sketch.</desc>  <g id="Page-1" stroke="none" stroke-width="1" fill="none" fill-rule="evenodd"> <g id="icons" transform="translate(-213.000000, -12.000000)"> <g id="Group" transform="translate(214.000000, 12.000000)"> <polygon id="Shape" stroke="#000000" stroke-width="1.4173" points="33.2 23.7 62.5 23.7 68.4 29.5 68.4 69.3 33.2 69.3"/> <polygon id="Shape" stroke="#000000" stroke-width="1.4173" stroke-linejoin="round" points="68.4 29.5 62.5 29.5 62.5 23.7"/> <path d="M38.9,29.8 L51.2,29.8" id="Shape" stroke="#000000" stroke-width="1.4173"/> <path d="M64.5,35.6 L37.1,35.6" id="Shape" stroke="#000000" stroke-width="1.4173"/> <path d="M64.5,39.3 L37.1,39.3" id="Shape" stroke="#000000" stroke-width="1.4173"/> <path d="M64.5,43 L37.1,43" id="Shape" stroke="#000000" stroke-width="1.4173"/> <path d="M64.5,46.7 L37.1,46.7" id="Shape" stroke="#000000" stroke-width="1.4173"/> <path d="M64.5,50.4 L37.1,50.4" id="Shape" stroke="#000000" stroke-width="1.4173"/> <path d="M64.5,54.1 L37.1,54.1" id="Shape" stroke="#000000" stroke-width="1.4173"/> <path d="M64.5,57.8 L37.1,57.8" id="Shape" stroke="#000000" stroke-width="1.4173"/> <path d="M64.5,61.5 L50.4,61.5" id="Shape" stroke="#000000" stroke-width="1.4173"/> <path d="M58.6,65.2 L50.4,65.2" id="Shape" stroke="#000000" stroke-width="1.4173"/> <g transform="translate(0.000000, 62.000000)" stroke="#000000" id="Shape" stroke-width="1.4173" stroke-linecap="round" stroke-linejoin="round"> <polyline points="0.6 0.2 8.6 0.2 8.6 18.3 0.6 18.3"/> <path d="M8.6,16.5 L11.7,16.5 C13.7,16.5 15.1,17.9 15.7,18.5 L25.6,28.4 C26.6,29.4 27.4,29.8 28.9,29.8 L50,29.8 C54.4,29.8 54.5,22.6 50,22.6 L39.2,22.6"/> <path d="M24.3,14 L31.5,21.2 C34.9,24.6 39.4,19.4 36.3,16.4 L25.7,5.8 C23.5,3.6 22.4,3.8 19.4,3.8 L8.5,3.8"/> </g> <g transform="translate(48.000000, 0.000000)" stroke="#000000" id="Shape" stroke-width="1.4173" stroke-linecap="round" stroke-linejoin="round"> <polyline points="53.1 30.5 45 30.5 45 12.4 53.1 12.4"/> <path d="M29.4,16.7 L22.2,9.5 C18.8,6.1 14.3,11.3 17.4,14.3 L28,24.9 C30.2,27.1 31.3,26.9 34.3,26.9 L45,26.9"/> <path d="M45,14.2 L41.9,14.2 C39.9,14.2 38.5,12.8 37.9,12.2 L28,2.3 C27,1.3 26.2,0.9 24.7,0.9 L3.6,0.9 C-0.8,0.9 -0.9,8.1 3.6,8.1 L14.4,8.1"/> </g> <g transform="translate(7.000000, 45.000000)"> <path d="M10.7,1.5 L4.1,1.5" id="Shape" stroke="#000000" stroke-width="1.4173" stroke-linecap="round"/> <circle id="Oval" fill="#000000" fill-rule="nonzero" cx="1.4" cy="1.5" r="1"/> </g> <g transform="translate(12.000000, 24.000000)"> <path d="M10.2,6 L4.5,2.7" id="Shape" stroke="#000000" stroke-width="1.4173" stroke-linecap="round"/> <circle id="Oval" fill="#000000" fill-rule="nonzero" transform="translate(2.035100, 1.340600) rotate(-59.999272) translate(-2.035100, -1.340600) " cx="2.0351" cy="1.3406" r="1"/> </g> <g transform="translate(28.000000, 8.000000)"> <path d="M6.3,9.9 L3,4.2" id="Shape" stroke="#000000" stroke-width="1.4173" stroke-linecap="round"/> <circle id="Oval" fill="#000000" fill-rule="nonzero" transform="translate(1.591270, 1.686140) rotate(-30.005690) translate(-1.591270, -1.686140) " cx="1.59127" cy="1.68614" r="1"/> </g> <g transform="translate(83.000000, 45.000000)"> <path d="M0.9,1.5 L7.5,1.5" id="Shape" stroke="#000000" stroke-width="1.4173" stroke-linecap="round"/> <circle id="Oval" fill="#000000" fill-rule="nonzero" cx="10.3" cy="1.5" r="1"/> </g> <g transform="translate(79.000000, 63.000000)"> <path d="M0.4,0 L6.2,3.3" id="Shape" stroke="#000000" stroke-width="1.4173" stroke-linecap="round"/> <circle id="Oval" fill="#000000" fill-rule="nonzero" transform="translate(8.547700, 4.693300) rotate(-59.999272) translate(-8.547700, -4.693300) " cx="8.5477" cy="4.6933" r="1"/> </g> <g transform="translate(67.000000, 75.000000)"> <path d="M0.3,0.1 L3.6,5.9" id="Shape" stroke="#000000" stroke-width="1.4173" stroke-linecap="round"/> <circle id="Oval" fill="#000000" fill-rule="nonzero" transform="translate(5.005400, 8.330400) rotate(-30.000728) translate(-5.005400, -8.330400) " cx="5.0054" cy="8.3304" r="1"/> </g> <circle id="Oval" fill="#000000" fill-rule="nonzero" cx="5.4" cy="65.1" r="1"/> <circle id="Oval" fill="#000000" fill-rule="nonzero" cx="96.2" cy="27.7" r="1"/> </g> </g> </g> 
    </symbol>
    <symbol id="icon_logo" viewBox="0 0 255.1 141.7">
        <g> <path class="st0" d="M53.4,46.9V21.3h7.8v18.8h9.7v6.8H53.4z"/> <path class="st0" d="M84.5,46.9v-1.8c-1,1.3-3.3,2.2-5.6,2.2c-2.8,0-6.4-1.9-6.4-6.1c0-4.6,3.6-5.9,6.4-5.9c2.4,0,4.6,0.8,5.6,2
		v-1.9c0-1.3-1.2-2.3-3.5-2.3c-1.7,0-3.7,0.7-5.1,1.8l-2.3-4.3c2.5-2,5.9-2.8,8.8-2.8c4.6,0,9.1,1.6,9.1,7.8v11.2H84.5z M84.5,41.8
		v-1c-0.5-0.7-1.6-1-2.7-1c-1.2,0-2.4,0.4-2.4,1.5s1.3,1.5,2.4,1.5C82.8,42.8,84,42.5,84.5,41.8z"/> <path class="st0" d="M111.8,46.9l-3-10.4l-3,10.4h-7.5l-5.4-18.5h7.1l2.5,10.2l3.3-10.2h6.2l3.2,10.2l2.5-10.2h7.1l-5.4,18.5H111.8
		z"/> <path d="M124.3,43.3l4-5.8c1.9,1.8,4.8,3.3,8.3,3.3c1.5,0,2.8-0.4,2.8-1.4c0-2.5-14.3,0-14.3-10.1c0-4.3,3.6-8.5,10.6-8.5
		c4.2,0,7.9,1.2,10.9,3.6l-4.1,5.5c-2.2-1.7-5.1-2.5-7.5-2.5c-1.5,0-2,0.5-2,1.2c0,2.4,14.2,0.3,14.2,9.9c0,5.6-4.2,8.9-11.1,8.9
		C130.8,47.3,127,45.7,124.3,43.3z"/> <path d="M150.7,41.5v-7.2h-3.1v-6h3.1v-5.1h6.9v5.1h3.8v6h-3.8v5.2c0,1,0.6,1.7,1.5,1.7c0.6,0,1.2-0.2,1.4-0.3l1.2,5.2
		c-0.7,0.7-2.3,1.2-4.7,1.2C152.9,47.3,150.7,45.4,150.7,41.5z"/> <path d="M162.7,37.6c0-5.2,3.8-9.7,10.4-9.7c6.6,0,10.4,4.5,10.4,9.7s-3.8,9.7-10.4,9.7C166.5,47.3,162.7,42.8,162.7,37.6z
		 M176.4,37.6c0-2-1.2-3.6-3.3-3.6c-2.1,0-3.3,1.6-3.3,3.6c0,2.1,1.2,3.6,3.3,3.6C175.2,41.2,176.4,39.7,176.4,37.6z"/> <path d="M184.8,37.6c0-5.9,4.5-9.7,10.4-9.7c4.2,0,6.8,1.9,7.9,3.5l-4.5,4.2c-0.6-0.9-1.7-1.6-3.1-1.6c-2,0-3.6,1.2-3.6,3.6
		c0,2.4,1.7,3.6,3.6,3.6c1.5,0,2.5-0.8,3.1-1.6l4.5,4.2c-1,1.5-3.6,3.5-7.9,3.5C189.3,47.3,184.8,43.5,184.8,37.6z"/> <path d="M216.8,46.9l-3.2-6l-1.3,1.8v4.2h-6.9V21.3h6.9v13.7l4.3-6.6h8.3l-6.4,8.4l6.8,10.1H216.8z"/> </g> <g> <polygon points="33.6,9.1 8.3,33.4 21.2,33.6 39.9,15.7 	"/> <polygon points="8.4,34.7 20.7,34.7 28.1,42.5 21.8,48.6 	"/> <polygon points="41.6,17.4 24.5,33.8 37.3,33.8 47.7,23.8 	"/> <polygon points="31.8,42.9 23.7,50.7 29.8,57 44.3,43.1 	"/> <polygon class="st0" points="24.7,34.7 37.2,34.8 44.2,42.1 31.8,42.1 	"/> </g> 
    </symbol>
    <symbol id="icon_people" viewBox="0 0 94 91">
       <!-- Generator: Sketch 43.1 (39012) - http://www.bohemiancoding.com/sketch --> <title>Group</title> <desc>Created with Sketch.</desc>  <g id="Page-1" stroke="none" stroke-width="1" fill="none" fill-rule="evenodd"> <g id="icons" transform="translate(1.000000, -12.000000)"> <g id="Group" transform="translate(0.000000, 13.000000)"> <path d="M76.8,34.7 L76.8,85.5" id="Shape" stroke="#000000" stroke-width="1.4173" stroke-linecap="round"/> <path d="M66.8,56.4 L66.8,85.5" id="Shape" stroke="#000000" stroke-width="1.4173" stroke-linecap="round"/> <path d="M14.2,60.7 L54.2,60.7 C55.6,60.7 56.8,61.9 56.8,63.3 L56.8,82.5 C56.8,84 55.6,85.1 54.2,85.1 L14.2,85.1 C12.8,85.1 11.6,83.9 11.6,82.5 L11.6,63.3 C11.6,61.9 12.7,60.7 14.2,60.7 Z" id="Shape" stroke="#000000" stroke-width="1.4173"/> <rect id="Rectangle-path" stroke="#000000" stroke-width="1.4173" x="8.4" y="85.2" width="51.6" height="3.6"/> <path d="M0.5,88.8 L92.1,88.8" id="Shape" stroke="#000000" stroke-width="1.4173" stroke-linecap="round"/> <path d="M25.9,45.1 L40.5,45.1 M25.9,45.1 C20.6,45.1 15.7,49.5 15.7,55.3 L15.7,56.9" id="Shape" stroke="#000000" stroke-width="1.4173" stroke-linecap="round"/> <path d="M23.5,54.1 L23.5,57.6" id="Shape" stroke="#000000" stroke-width="1.4173" stroke-linecap="round"/> <path d="M44.9,54.1 L44.9,57.6" id="Shape" stroke="#000000" stroke-width="1.4173" stroke-linecap="round"/> <path d="M56.7,34.7 L56.7,57.6" id="Shape" stroke="#000000" stroke-width="1.4173" stroke-linecap="round"/> <path d="M52.8,81.9 L46.2,81.9" id="Shape" stroke="#000000" stroke-width="1.4173" stroke-linecap="round"/> <path d="M44.2,42 L51.1,28.6 C52.9,25.2 54.9,23 59,23 M56.7,34.7 L52,46.9 C50.3,51.2 41.1,48.9 44.1,42 M76.8,56.2 C78.6,56.2 84.1,53.4 84.1,48.6 L84.1,32.7 C84.1,27.2 79.5,23.1 74.5,23.1 L59,23.1" id="Shape" stroke="#000000" stroke-width="1.4173" stroke-linecap="round"/> <path d="M65.5,24.7 L68,24.7 C68.3,24.7 68.6,24.9 68.6,25.3 L68.6,27.6 C68.6,27.9 68.4,28.2 68,28.2 L65.5,28.2 C65.2,28.2 64.9,28 64.9,27.6 L64.9,25.3 C65,25 65.2,24.7 65.5,24.7 Z" id="Shape" stroke="#000000" stroke-width="1.4173"/> <polygon id="Shape" stroke="#000000" stroke-width="1.4173" points="65.5 28.1 68 28.1 68.9 46.4 66.8 48.3 64.7 46.4"/> <g transform="translate(25.000000, 20.000000)" id="Shape" stroke="#000000" stroke-width="1.4173" stroke-linecap="round"> <path d="M9.2,0.9 C3.6,0.9 0.4,4.7 0.4,10.8 C1.2,8.4 4.5,9.3 4.6,5.8 C6.7,6 7.6,8.2 9.5,8.4 C12.2,8.6 15.6,6.2 18,10.8 C18,4.6 14.8,0.9 9.2,0.9 Z" stroke-linejoin="round"/> <path d="M8.5,22.8 C7.6,22.8 6.9,22.6 6.2,22.2 C5.3,21.7 5,20.9 4.4,19.9 C3,17.6 1.6,14.2 1.2,10.1 M17.2,10 C16.8,14.1 15.4,17.5 14,19.8 C13.3,20.8 13.1,21.6 12.2,22.1 C11.5,22.5 10.7,22.7 9.9,22.7 L8.6,22.7"/> </g> <g transform="translate(58.000000, 0.000000)" id="Shape" stroke="#000000" stroke-width="1.4173" stroke-linecap="round"> <path d="M8.8,0.3 C3.7,0.3 0.8,3.7 0.8,9.3 C1.5,7.1 4.5,8 4.6,4.8 C6.5,5 7.3,7 9.1,7.2 C11.6,7.4 14.6,5.2 16.8,9.4 C16.8,3.7 13.9,0.3 8.8,0.3 Z" stroke-linejoin="round"/> <path d="M8.2,20.2 C7.4,20.2 6.7,20 6.1,19.6 C5.3,19.1 5,18.4 4.4,17.5 C3.1,15.5 1.9,12.4 1.5,8.6 M16.1,8.6 C15.7,12.4 14.5,15.4 13.2,17.5 C12.6,18.5 12.4,19.2 11.5,19.6 C10.9,20 10.2,20.2 9.4,20.2 L8.2,20.2"/> </g> <path d="M34.2,70.4 C32.8,70.4 31.7,71.5 31.7,72.9 C31.7,74.3 32.8,75.4 34.2,75.4 C35.6,75.4 36.7,74.3 36.7,72.9" id="Shape" stroke="#000000" stroke-width="1.4173" stroke-linecap="round"/> <circle id="Oval" fill="#000000" fill-rule="nonzero" cx="36.5" cy="70.7" r="1"/> <path d="M52.8,51.2 L52.8,57.6" id="Shape" stroke="#000000" stroke-width="1.4173" stroke-linecap="round"/> </g> </g> </g> 
    </symbol>
    <symbol id="icon_refuse" viewBox="0 0 17 17">
       <metadata><?xpacket begin="﻿" id="W5M0MpCehiHzreSzNTczkc9d"?> <x:xmpmeta xmlns:x="adobe:ns:meta/" x:xmptk="Adobe XMP Core 5.6-c142 79.160924, 2017/07/13-01:06:39        "> <rdf:RDF xmlns:rdf="http://www.w3.org/1999/02/22-rdf-syntax-ns#"> <rdf:Description rdf:about=""/> </rdf:RDF> </x:xmpmeta> <?xpacket end="w"?></metadata>  <path id="refuse" class="cls-1" d="M722.5,334a8.5,8.5,0,1,0,5.89,14.628,0.346,0.346,0,1,0-.479-0.5,7.781,7.781,0,1,1,1.874-2.813,0.346,0.346,0,1,0,.645.249A8.5,8.5,0,0,0,722.5,334Zm1.165,9.233a0.346,0.346,0,1,0-.485.494l2.724,2.666a0.346,0.346,0,1,0,.484-0.494Zm-2.448-1.526a0.348,0.348,0,0,0,.49,0,0.346,0.346,0,0,0,0-.489l-2.608-2.609a0.346,0.346,0,0,0-.49.49Zm5.174-3.1a0.347,0.347,0,0,0-.49,0l-7.292,7.292a0.346,0.346,0,0,0,.49.49l7.292-7.292A0.347,0.347,0,0,0,726.391,338.609Z" transform="translate(-714 -334)"/> 
    </symbol>
    <symbol id="icon_search" viewBox="0 0 96 93">
       <!-- Generator: Sketch 43.1 (39012) - http://www.bohemiancoding.com/sketch --> <title>Group</title> <desc>Created with Sketch.</desc>  <g id="Page-1" stroke="none" stroke-width="1" fill="none" fill-rule="evenodd"> <g id="icons" transform="translate(-438.000000, -12.000000)"> <g id="Group" transform="translate(429.000000, 0.000000)"> <circle id="Oval" stroke="#000000" stroke-width="1.41728641" transform="translate(42.776690, 43.096130) rotate(-45.000000) translate(-42.776690, -43.096130) " cx="42.77669" cy="43.09613" r="30.1997104"/> <circle id="Oval" stroke="#000000" stroke-width="1.41728641" transform="translate(42.776590, 43.095630) rotate(-45.000000) translate(-42.776590, -43.095630) " cx="42.77659" cy="43.09563" r="24.6997631"/> <rect id="Rectangle-path" stroke="#000000" stroke-width="1.41728641" transform="translate(84.329300, 84.634830) rotate(-45.000000) translate(-84.329300, -84.634830) " x="78.4793561" y="67.6849926" width="11.6998878" height="33.8996749"/> <rect id="Rectangle-path" stroke="#000000" stroke-width="1.41728641" transform="translate(98.472830, 98.808130) rotate(-45.000000) translate(-98.472830, -98.808130) " x="94.5728674" y="95.7081597" width="7.7999252" height="6.19994054"/> <path d="M75,70 L66.6,61.7" id="Shape" stroke="#000000" stroke-width="1.4173"/> <path d="M69.6,75.4 L61.2,67" id="Shape" stroke="#000000" stroke-width="1.4173"/> <path d="M95.4,87.4 L87.1,95.8" id="Shape" stroke="#000000" stroke-width="1.4173"/> <path d="M9.8,99.7 L76.5,99.7" id="Shape" stroke="#000000" stroke-width="1.4173"/> <polyline id="Shape" stroke="#000000" stroke-width="1.4173" stroke-linecap="round" points="28.4 80.8 13.4 80.8 13.4 99.7"/> <polyline id="Shape" stroke="#000000" stroke-width="1.4173" stroke-linecap="round" points="57.9 87.5 72.8 87.5 72.8 99.7"/> <path d="M31.4,99.7 L31.4,74.9" id="Shape" stroke="#000000" stroke-width="1.4173" stroke-linecap="round"/> <path d="M54.9,99.7 L54.9,74.9" id="Shape" stroke="#000000" stroke-width="1.4173" stroke-linecap="round"/> <g transform="translate(18.000000, 96.000000)"> <path d="M10.4,0.8 L4.1,0.8" id="Shape" stroke="#000000" stroke-width="1.4173" stroke-linecap="round"/> <circle id="Oval" fill="#000000" fill-rule="nonzero" cx="1.5" cy="0.8" r="1"/> </g> <g transform="translate(57.000000, 96.000000)"> <path d="M0.9,0.8 L7.1,0.8" id="Shape" stroke="#000000" stroke-width="1.4173" stroke-linecap="round"/> <circle id="Oval" fill="#000000" fill-rule="nonzero" cx="9.8" cy="0.8" r="1"/> </g> <path d="M34.4,96.8 L51.8,96.8" id="Shape" stroke="#000000" stroke-width="1.4173" stroke-linecap="round"/> <polyline id="Shape" stroke="#000000" stroke-width="1.4173" stroke-linecap="round" points="41.4 79.4 43.8 79.4 43.8 90.5"/> <path d="M42.8,29.3 L36.3,29.3 C32.7,39.1 46.4,43.9 38,52.7 L42.8,52.7 L47.6,52.7 C39.2,43.9 52.8,39.1 49.3,29.3 L42.8,29.3 Z" id="Shape" stroke="#000000" stroke-width="1.4173"/> <path d="M38.8,41.2 C25.5,37.5 28.6,26.7 35.8,31.3" id="Shape" stroke="#000000" stroke-width="1.4173"/> <path d="M39.3,42.1 C39.6,43.7 38.1,44.6 37.1,43" id="Shape" stroke="#000000" stroke-width="1.4173" stroke-linecap="round"/> <path d="M46.2,42.1 C45.9,43.7 47.4,44.6 48.4,43" id="Shape" stroke="#000000" stroke-width="1.4173" stroke-linecap="round"/> <rect id="Rectangle-path" stroke="#000000" stroke-width="1.4173" x="34.2" y="52.7" width="17.1" height="2.7"/> <polyline id="Shape" stroke="#000000" stroke-width="1.4173" stroke-linecap="round" points="29.1 59.4 29.1 55.5 56.4 55.5 56.4 59.4"/> <path d="M37.1,26.9 L48.4,26.9" id="Shape" stroke="#000000" stroke-width="1.4173" stroke-linecap="round"/> <path d="M46.7,41.2 C60,37.5 56.9,26.7 49.7,31.3" id="Shape" stroke="#000000" stroke-width="1.4173"/> <path d="M47,31.7 C47.1,34.8 46.3,36.5 44.6,39.6" id="Shape" stroke="#000000" stroke-width="1.4173" stroke-linecap="round"/> </g> </g> </g> 
    </symbol>
    <symbol id="icon_speech-bubble-outline-of-rectangular-shape" viewBox="0 0 612 612">
       <g> <g id="Polygon_1"> <g> <path d="M577.358,46.188H34.642C15.508,46.188,0,61.696,0,80.83v334.869c0,19.133,15.508,34.641,34.642,34.641h35.6
				l62.54,115.473l62.54-115.473h382.038c19.134,0,34.642-15.508,34.642-34.641V80.83C612,61.696,596.492,46.188,577.358,46.188z
				 M588.905,392.603c0,19.135-15.508,34.643-34.642,34.643H179.212l-45.646,79.051l-45.634-79.051H57.736
				c-19.134,0-34.642-15.508-34.642-34.643V103.924c0-19.134,15.508-34.642,34.642-34.642h496.528
				c19.134,0,34.642,15.508,34.642,34.642V392.603z"/> </g> </g> </g>                
    </symbol>
    <symbol id="icon_star-active" viewBox="0 0 53.867 53.867">
       <polygon class="star_active" style="" points="26.934,1.318 35.256,18.182 53.867,20.887 40.4,34.013 43.579,52.549 26.934,43.798
	10.288,52.549 13.467,34.013 0,20.887 18.611,18.182 "/>                
    </symbol>
    <symbol id="icon_star-focus" viewBox="0 0 55.867 55.867">
       <path d="M55.818,21.578c-0.118-0.362-0.431-0.626-0.808-0.681L36.92,18.268L28.83,1.876c-0.168-0.342-0.516-0.558-0.896-0.558  s-0.729,0.216-0.896,0.558l-8.091,16.393l-18.09,2.629c-0.377,0.055-0.689,0.318-0.808,0.681c-0.117,0.361-0.02,0.759,0.253,1.024  l13.091,12.76l-3.091,18.018c-0.064,0.375,0.09,0.754,0.397,0.978c0.309,0.226,0.718,0.255,1.053,0.076l16.182-8.506l16.18,8.506  c0.146,0.077,0.307,0.115,0.466,0.115c0.207,0,0.413-0.064,0.588-0.191c0.308-0.224,0.462-0.603,0.397-0.978l-3.09-18.017  l13.091-12.761C55.838,22.336,55.936,21.939,55.818,21.578z" fill=""/>                
    </symbol>
    <symbol id="icon_star" viewBox="0 0 49.94 49.94">
       <path d="M48.856,22.731c0.983-0.958,1.33-2.364,0.906-3.671c-0.425-1.307-1.532-2.24-2.892-2.438l-12.092-1.757
	c-0.515-0.075-0.96-0.398-1.19-0.865L28.182,3.043c-0.607-1.231-1.839-1.996-3.212-1.996c-1.372,0-2.604,0.765-3.211,1.996
	L16.352,14c-0.23,0.467-0.676,0.79-1.191,0.865L3.069,16.623C1.71,16.82,0.603,17.753,0.178,19.06
	c-0.424,1.307-0.077,2.713,0.906,3.671l8.749,8.528c0.373,0.364,0.544,0.888,0.456,1.4L8.224,44.702
	c-0.232,1.353,0.313,2.694,1.424,3.502c1.11,0.809,2.555,0.914,3.772,0.273l10.814-5.686c0.461-0.242,1.011-0.242,1.472,0
	l10.815,5.686c0.528,0.278,1.1,0.415,1.669,0.415c0.739,0,1.475-0.231,2.103-0.688c1.111-0.808,1.656-2.149,1.424-3.502
	L39.651,32.66c-0.088-0.513,0.083-1.036,0.456-1.4L48.856,22.731z M37.681,32.998l2.065,12.042c0.104,0.606-0.131,1.185-0.629,1.547
	c-0.499,0.361-1.12,0.405-1.665,0.121l-10.815-5.687c-0.521-0.273-1.095-0.411-1.667-0.411s-1.145,0.138-1.667,0.412l-10.813,5.686
	c-0.547,0.284-1.168,0.24-1.666-0.121c-0.498-0.362-0.732-0.94-0.629-1.547l2.065-12.042c0.199-1.162-0.186-2.348-1.03-3.17
	L2.48,21.299c-0.441-0.43-0.591-1.036-0.4-1.621c0.19-0.586,0.667-0.988,1.276-1.077l12.091-1.757
	c1.167-0.169,2.176-0.901,2.697-1.959l5.407-10.957c0.272-0.552,0.803-0.881,1.418-0.881c0.616,0,1.146,0.329,1.419,0.881
	l5.407,10.957c0.521,1.058,1.529,1.79,2.696,1.959l12.092,1.757c0.609,0.089,1.086,0.491,1.276,1.077
	c0.19,0.585,0.041,1.191-0.4,1.621l-8.749,8.528C37.866,30.65,37.481,31.835,37.681,32.998z"/>                
    </symbol></svg>