<svg xmlns="http://www.w3.org/2000/svg" width="21" height="21" viewBox="0 0 21 21">
  <metadata><?xpacket begin="﻿" id="W5M0MpCehiHzreSzNTczkc9d"?>
<x:xmpmeta xmlns:x="adobe:ns:meta/" x:xmptk="Adobe XMP Core 5.6-c142 79.160924, 2017/07/13-01:06:39        ">
   <rdf:RDF xmlns:rdf="http://www.w3.org/1999/02/22-rdf-syntax-ns#">
      <rdf:Description rdf:about=""/>
   </rdf:RDF>
</x:xmpmeta>
                                                                                                    
                                                                                                    
                                                                                                    
                                                                                                    
                                                                                                    
                                                                                                    
                                                                                                    
                                                                                                    
                                                                                                    
                                                                                                    
                                                                                                    
                                                                                                    
                                                                                                    
                                                                                                    
                                                                                                    
                                                                                                    
                                                                                                    
                                                                                                    
                                                                                                    
                                                                                                    
                           
<?xpacket end="w"?></metadata>
<defs>
    <style>
      .cls-1 {
        fill-rule: evenodd;
      }
    </style>
  </defs>
  <path id="bank" class="cls-1" d="M350,339.783h-1.018v-4.635a2.027,2.027,0,0,0-2.035-2.015h-1.379l-1.41-2.511A1.224,1.224,0,0,0,343.09,330a1.24,1.24,0,0,0-.593.152l-5.414,2.981h-6.047A2.028,2.028,0,0,0,329,335.148v13.837A2.028,2.028,0,0,0,331.036,351h15.911a2.027,2.027,0,0,0,2.035-2.015v-4.064H350v-5.138h0Zm-3.053-5.844a1.214,1.214,0,0,1,1.208,1.075h-1.53l-0.6-1.075h0.926Zm-4.054-3.082a0.417,0.417,0,0,1,.553.156l2.247,4H335.342Zm5.275,18.128a1.217,1.217,0,0,1-1.221,1.209H331.036a1.217,1.217,0,0,1-1.222-1.209V335.148a1.217,1.217,0,0,1,1.222-1.209h4.583l-1.953,1.075H331.29a0.4,0.4,0,1,0,0,.806h16.878v3.963h-2.977a2.5,2.5,0,0,0-2.508,2.483v0.173a2.5,2.5,0,0,0,2.508,2.483h2.977v4.063h0Zm1.018-4.87h-4a1.687,1.687,0,0,1-1.694-1.676v-0.174a1.687,1.687,0,0,1,1.694-1.676h4v3.526Zm-2.748-1.73a0.9,0.9,0,1,1-.9-0.89A0.894,0.894,0,0,1,346.438,342.385Z" transform="translate(-329 -330)"/>
</svg>
