<?xml version="1.0" encoding="iso-8859-1"?>
<!-- Generator: Adobe Illustrator 19.0.0, SVG Export Plug-In . SVG Version: 6.00 Build 0)  -->
<svg version="1.1" id="Layer_1" xmlns="http://www.w3.org/2000/svg" xmlns:xlink="http://www.w3.org/1999/xlink" x="0px" y="0px"
	 viewBox="0 0 512 512" style="enable-background:new 0 0 512 512;" xml:space="preserve">
<g>
	<g>
		<path d="M417.684,0H94.316C77.972,0,64.674,13.297,64.674,29.642v452.716c0,16.345,13.298,29.642,29.642,29.642h323.368
			c16.344,0,29.642-13.297,29.642-29.642V29.642C447.326,13.297,434.028,0,417.684,0z M431.158,482.358
			c0,7.43-6.044,13.474-13.474,13.474H94.316c-7.43,0-13.474-6.044-13.474-13.474V29.642c0-7.43,6.044-13.474,13.474-13.474h323.368
			c7.43,0,13.474,6.044,13.474,13.474V482.358z"/>
	</g>
</g>
<g>
	<g>
		<path d="M323.368,291.032v177.853h80.842V291.032H323.368z M388.042,452.716h-48.505V307.2h48.505V452.716z"/>
	</g>
</g>
<g>
	<g>
		<path d="M107.789,388.042v80.842h80.842v-80.842H107.789z M172.463,452.716h-48.505v-48.505h48.505V452.716z"/>
	</g>
</g>
<g>
	<g>
		<path d="M215.579,388.042v80.842h80.842v-80.842H215.579z M280.253,452.716h-48.505v-48.505h48.505V452.716z"/>
	</g>
</g>
<g>
	<g>
		<path d="M107.789,291.032v80.842h80.842v-80.842H107.789z M172.463,355.705h-48.505V307.2h48.505V355.705z"/>
	</g>
</g>
<g>
	<g>
		<path d="M215.579,291.032v80.842h80.842v-80.842H215.579z M280.253,355.705h-48.505V307.2h48.505V355.705z"/>
	</g>
</g>
<g>
	<g>
		<path d="M107.789,194.021v80.842h80.842v-80.842H107.789z M172.463,258.695h-48.505v-48.505h48.505V258.695z"/>
	</g>
</g>
<g>
	<g>
		<path d="M215.579,194.021v80.842h80.842v-80.842H215.579z M280.253,258.695h-48.505v-48.505h48.505V258.695z"/>
	</g>
</g>
<g>
	<g>
		<path d="M323.368,194.021v80.842h80.842v-80.842H323.368z M388.042,258.695h-48.505v-48.505h48.505V258.695z"/>
	</g>
</g>
<g>
	<g>
		<path d="M385.347,97.011H126.653c-10.401,0-18.863,8.463-18.863,18.863v43.116c0,10.401,8.463,18.863,18.863,18.863h258.695
			c10.401,0,18.863-8.463,18.863-18.863v-43.116C404.211,105.473,395.748,97.011,385.347,97.011z M388.042,158.989
			c0,1.485-1.208,2.695-2.695,2.695H126.653c-1.486,0-2.695-1.209-2.695-2.695v-43.116c0-1.485,1.208-2.695,2.695-2.695h258.695
			c1.486,0,2.695,1.209,2.695,2.695V158.989z"/>
	</g>
</g>
<g>
	<g>
		<path d="M226.358,32.337v48.505h177.853V32.337H226.358z M280.253,64.674h-37.726V48.505h37.726V64.674z M334.147,64.674h-37.726
			V48.505h37.726V64.674z M388.042,64.674h-37.726V48.505h37.726V64.674z"/>
	</g>
</g>
<g>
	<g>
		<rect x="353.01" y="129.347" width="16.168" height="16.168"/>
	</g>
</g>
<g>
	<g>
		<rect x="320.674" y="129.347" width="16.168" height="16.168"/>
	</g>
</g>
<g>
	<g>
		<rect x="288.337" y="129.347" width="16.168" height="16.168"/>
	</g>
</g>
<g>
</g>
<g>
</g>
<g>
</g>
<g>
</g>
<g>
</g>
<g>
</g>
<g>
</g>
<g>
</g>
<g>
</g>
<g>
</g>
<g>
</g>
<g>
</g>
<g>
</g>
<g>
</g>
<g>
</g>
</svg>
