<?xml version="1.0" encoding="iso-8859-1"?>
<!-- Generator: Adobe Illustrator 19.0.0, SVG Export Plug-In . SVG Version: 6.00 Build 0)  -->
<svg version="1.1" id="Layer_1" xmlns="http://www.w3.org/2000/svg" xmlns:xlink="http://www.w3.org/1999/xlink" x="0px" y="0px"
	 viewBox="0 0 512 512" style="enable-background:new 0 0 512 512;" xml:space="preserve">
<g>
	<g>
		<path d="M469.333,115.2H384V64c0-14.138-11.461-25.6-25.6-25.6H153.6C139.461,38.4,128,49.861,128,64v51.2H42.667
			C19.103,115.2,0,134.303,0,157.867v273.067C0,454.498,19.103,473.6,42.667,473.6h426.667c23.564,0,42.667-19.102,42.667-42.667
			V157.867C512,134.303,492.898,115.2,469.333,115.2z M145.067,64c0-4.713,3.821-8.533,8.533-8.533h204.8
			c4.713,0,8.533,3.82,8.533,8.533v51.2h-17.067V81.067c0-4.713-3.82-8.533-8.533-8.533H170.667c-4.713,0-8.533,3.82-8.533,8.533
			V115.2h-17.067V64z M332.8,89.6v25.6H179.2V89.6H332.8z M494.933,430.933c0,14.138-11.461,25.6-25.6,25.6H42.667
			c-14.138,0-25.6-11.462-25.6-25.6v-128h204.8V320c0,14.138,11.461,25.6,25.6,25.6h17.067c14.138,0,25.6-11.462,25.6-25.6v-17.067
			h204.8V430.933z M238.933,320v-25.6v-25.6c0-4.713,3.82-8.533,8.533-8.533h17.067c4.713,0,8.533,3.82,8.533,8.533V320
			c0,4.713-3.821,8.533-8.533,8.533h-17.067C242.754,328.533,238.933,324.713,238.933,320z M494.933,285.867h-204.8V268.8
			c0-14.138-11.462-25.6-25.6-25.6h-17.067c-14.138,0-25.6,11.462-25.6,25.6v17.067h-204.8v-128c0-14.138,11.462-25.6,25.6-25.6
			h426.667c14.138,0,25.6,11.461,25.6,25.6V285.867z"/>
	</g>
</g>
<g>
</g>
<g>
</g>
<g>
</g>
<g>
</g>
<g>
</g>
<g>
</g>
<g>
</g>
<g>
</g>
<g>
</g>
<g>
</g>
<g>
</g>
<g>
</g>
<g>
</g>
<g>
</g>
<g>
</g>
</svg>
