<?xml version="1.0" encoding="UTF-8"?>
<svg width="103px" height="93px" viewBox="0 0 103 93" version="1.1" xmlns="http://www.w3.org/2000/svg" xmlns:xlink="http://www.w3.org/1999/xlink">
    <!-- Generator: Sketch 43.1 (39012) - http://www.bohemiancoding.com/sketch -->
    <title>Group</title>
    <desc>Created with Sketch.</desc>
    <defs></defs>
    <g id="Page-1" stroke="none" stroke-width="1" fill="none" fill-rule="evenodd">
        <g id="icons" transform="translate(-213.000000, -12.000000)">
            <g id="Group" transform="translate(214.000000, 12.000000)">
                <polygon id="Shape" stroke="#000000" stroke-width="1.4173" points="33.2 23.7 62.5 23.7 68.4 29.5 68.4 69.3 33.2 69.3"></polygon>
                <polygon id="Shape" stroke="#000000" stroke-width="1.4173" stroke-linejoin="round" points="68.4 29.5 62.5 29.5 62.5 23.7"></polygon>
                <path d="M38.9,29.8 L51.2,29.8" id="Shape" stroke="#000000" stroke-width="1.4173"></path>
                <path d="M64.5,35.6 L37.1,35.6" id="Shape" stroke="#000000" stroke-width="1.4173"></path>
                <path d="M64.5,39.3 L37.1,39.3" id="Shape" stroke="#000000" stroke-width="1.4173"></path>
                <path d="M64.5,43 L37.1,43" id="Shape" stroke="#000000" stroke-width="1.4173"></path>
                <path d="M64.5,46.7 L37.1,46.7" id="Shape" stroke="#000000" stroke-width="1.4173"></path>
                <path d="M64.5,50.4 L37.1,50.4" id="Shape" stroke="#000000" stroke-width="1.4173"></path>
                <path d="M64.5,54.1 L37.1,54.1" id="Shape" stroke="#000000" stroke-width="1.4173"></path>
                <path d="M64.5,57.8 L37.1,57.8" id="Shape" stroke="#000000" stroke-width="1.4173"></path>
                <path d="M64.5,61.5 L50.4,61.5" id="Shape" stroke="#000000" stroke-width="1.4173"></path>
                <path d="M58.6,65.2 L50.4,65.2" id="Shape" stroke="#000000" stroke-width="1.4173"></path>
                <g transform="translate(0.000000, 62.000000)" stroke="#000000" id="Shape" stroke-width="1.4173" stroke-linecap="round" stroke-linejoin="round">
                    <polyline points="0.6 0.2 8.6 0.2 8.6 18.3 0.6 18.3"></polyline>
                    <path d="M8.6,16.5 L11.7,16.5 C13.7,16.5 15.1,17.9 15.7,18.5 L25.6,28.4 C26.6,29.4 27.4,29.8 28.9,29.8 L50,29.8 C54.4,29.8 54.5,22.6 50,22.6 L39.2,22.6"></path>
                    <path d="M24.3,14 L31.5,21.2 C34.9,24.6 39.4,19.4 36.3,16.4 L25.7,5.8 C23.5,3.6 22.4,3.8 19.4,3.8 L8.5,3.8"></path>
                </g>
                <g transform="translate(48.000000, 0.000000)" stroke="#000000" id="Shape" stroke-width="1.4173" stroke-linecap="round" stroke-linejoin="round">
                    <polyline points="53.1 30.5 45 30.5 45 12.4 53.1 12.4"></polyline>
                    <path d="M29.4,16.7 L22.2,9.5 C18.8,6.1 14.3,11.3 17.4,14.3 L28,24.9 C30.2,27.1 31.3,26.9 34.3,26.9 L45,26.9"></path>
                    <path d="M45,14.2 L41.9,14.2 C39.9,14.2 38.5,12.8 37.9,12.2 L28,2.3 C27,1.3 26.2,0.9 24.7,0.9 L3.6,0.9 C-0.8,0.9 -0.9,8.1 3.6,8.1 L14.4,8.1"></path>
                </g>
                <g transform="translate(7.000000, 45.000000)">
                    <path d="M10.7,1.5 L4.1,1.5" id="Shape" stroke="#000000" stroke-width="1.4173" stroke-linecap="round"></path>
                    <circle id="Oval" fill="#000000" fill-rule="nonzero" cx="1.4" cy="1.5" r="1"></circle>
                </g>
                <g transform="translate(12.000000, 24.000000)">
                    <path d="M10.2,6 L4.5,2.7" id="Shape" stroke="#000000" stroke-width="1.4173" stroke-linecap="round"></path>
                    <circle id="Oval" fill="#000000" fill-rule="nonzero" transform="translate(2.035100, 1.340600) rotate(-59.999272) translate(-2.035100, -1.340600) " cx="2.0351" cy="1.3406" r="1"></circle>
                </g>
                <g transform="translate(28.000000, 8.000000)">
                    <path d="M6.3,9.9 L3,4.2" id="Shape" stroke="#000000" stroke-width="1.4173" stroke-linecap="round"></path>
                    <circle id="Oval" fill="#000000" fill-rule="nonzero" transform="translate(1.591270, 1.686140) rotate(-30.005690) translate(-1.591270, -1.686140) " cx="1.59127" cy="1.68614" r="1"></circle>
                </g>
                <g transform="translate(83.000000, 45.000000)">
                    <path d="M0.9,1.5 L7.5,1.5" id="Shape" stroke="#000000" stroke-width="1.4173" stroke-linecap="round"></path>
                    <circle id="Oval" fill="#000000" fill-rule="nonzero" cx="10.3" cy="1.5" r="1"></circle>
                </g>
                <g transform="translate(79.000000, 63.000000)">
                    <path d="M0.4,0 L6.2,3.3" id="Shape" stroke="#000000" stroke-width="1.4173" stroke-linecap="round"></path>
                    <circle id="Oval" fill="#000000" fill-rule="nonzero" transform="translate(8.547700, 4.693300) rotate(-59.999272) translate(-8.547700, -4.693300) " cx="8.5477" cy="4.6933" r="1"></circle>
                </g>
                <g transform="translate(67.000000, 75.000000)">
                    <path d="M0.3,0.1 L3.6,5.9" id="Shape" stroke="#000000" stroke-width="1.4173" stroke-linecap="round"></path>
                    <circle id="Oval" fill="#000000" fill-rule="nonzero" transform="translate(5.005400, 8.330400) rotate(-30.000728) translate(-5.005400, -8.330400) " cx="5.0054" cy="8.3304" r="1"></circle>
                </g>
                <circle id="Oval" fill="#000000" fill-rule="nonzero" cx="5.4" cy="65.1" r="1"></circle>
                <circle id="Oval" fill="#000000" fill-rule="nonzero" cx="96.2" cy="27.7" r="1"></circle>
            </g>
        </g>
    </g>
</svg>