<?xml version="1.0" encoding="utf-8"?>
<!-- Generator: Adobe Illustrator 19.2.1, SVG Export Plug-In . SVG Version: 6.00 Build 0)  -->
<svg version="1.1" id="Слой_1" xmlns="http://www.w3.org/2000/svg" xmlns:xlink="http://www.w3.org/1999/xlink" x="0px" y="0px"
	 viewBox="0 0 255.1 141.7" style="enable-background:new 0 0 255.1 141.7;" xml:space="preserve">
<style type="text/css">
	.st0{fill:#60D9C6;}
</style>
<g>
	<path class="st0" d="M53.4,46.9V21.3h7.8v18.8h9.7v6.8H53.4z"/>
	<path class="st0" d="M84.5,46.9v-1.8c-1,1.3-3.3,2.2-5.6,2.2c-2.8,0-6.4-1.9-6.4-6.1c0-4.6,3.6-5.9,6.4-5.9c2.4,0,4.6,0.8,5.6,2
		v-1.9c0-1.3-1.2-2.3-3.5-2.3c-1.7,0-3.7,0.7-5.1,1.8l-2.3-4.3c2.5-2,5.9-2.8,8.8-2.8c4.6,0,9.1,1.6,9.1,7.8v11.2H84.5z M84.5,41.8
		v-1c-0.5-0.7-1.6-1-2.7-1c-1.2,0-2.4,0.4-2.4,1.5s1.3,1.5,2.4,1.5C82.8,42.8,84,42.5,84.5,41.8z"/>
	<path class="st0" d="M111.8,46.9l-3-10.4l-3,10.4h-7.5l-5.4-18.5h7.1l2.5,10.2l3.3-10.2h6.2l3.2,10.2l2.5-10.2h7.1l-5.4,18.5H111.8
		z"/>
	<path d="M124.3,43.3l4-5.8c1.9,1.8,4.8,3.3,8.3,3.3c1.5,0,2.8-0.4,2.8-1.4c0-2.5-14.3,0-14.3-10.1c0-4.3,3.6-8.5,10.6-8.5
		c4.2,0,7.9,1.2,10.9,3.6l-4.1,5.5c-2.2-1.7-5.1-2.5-7.5-2.5c-1.5,0-2,0.5-2,1.2c0,2.4,14.2,0.3,14.2,9.9c0,5.6-4.2,8.9-11.1,8.9
		C130.8,47.3,127,45.7,124.3,43.3z"/>
	<path d="M150.7,41.5v-7.2h-3.1v-6h3.1v-5.1h6.9v5.1h3.8v6h-3.8v5.2c0,1,0.6,1.7,1.5,1.7c0.6,0,1.2-0.2,1.4-0.3l1.2,5.2
		c-0.7,0.7-2.3,1.2-4.7,1.2C152.9,47.3,150.7,45.4,150.7,41.5z"/>
	<path d="M162.7,37.6c0-5.2,3.8-9.7,10.4-9.7c6.6,0,10.4,4.5,10.4,9.7s-3.8,9.7-10.4,9.7C166.5,47.3,162.7,42.8,162.7,37.6z
		 M176.4,37.6c0-2-1.2-3.6-3.3-3.6c-2.1,0-3.3,1.6-3.3,3.6c0,2.1,1.2,3.6,3.3,3.6C175.2,41.2,176.4,39.7,176.4,37.6z"/>
	<path d="M184.8,37.6c0-5.9,4.5-9.7,10.4-9.7c4.2,0,6.8,1.9,7.9,3.5l-4.5,4.2c-0.6-0.9-1.7-1.6-3.1-1.6c-2,0-3.6,1.2-3.6,3.6
		c0,2.4,1.7,3.6,3.6,3.6c1.5,0,2.5-0.8,3.1-1.6l4.5,4.2c-1,1.5-3.6,3.5-7.9,3.5C189.3,47.3,184.8,43.5,184.8,37.6z"/>
	<path d="M216.8,46.9l-3.2-6l-1.3,1.8v4.2h-6.9V21.3h6.9v13.7l4.3-6.6h8.3l-6.4,8.4l6.8,10.1H216.8z"/>
</g>
<g>
	<polygon points="33.6,9.1 8.3,33.4 21.2,33.6 39.9,15.7 	"/>
	<polygon points="8.4,34.7 20.7,34.7 28.1,42.5 21.8,48.6 	"/>
	<polygon points="41.6,17.4 24.5,33.8 37.3,33.8 47.7,23.8 	"/>
	<polygon points="31.8,42.9 23.7,50.7 29.8,57 44.3,43.1 	"/>
	<polygon class="st0" points="24.7,34.7 37.2,34.8 44.2,42.1 31.8,42.1 	"/>
</g>
</svg>
