<?xml version="1.0" encoding="UTF-8"?>
<svg width="94px" height="91px" viewBox="0 0 94 91" version="1.1" xmlns="http://www.w3.org/2000/svg" xmlns:xlink="http://www.w3.org/1999/xlink">
    <!-- Generator: Sketch 43.1 (39012) - http://www.bohemiancoding.com/sketch -->
    <title>Group</title>
    <desc>Created with Sketch.</desc>
    <defs></defs>
    <g id="Page-1" stroke="none" stroke-width="1" fill="none" fill-rule="evenodd">
        <g id="icons" transform="translate(1.000000, -12.000000)">
            <g id="Group" transform="translate(0.000000, 13.000000)">
                <path d="M76.8,34.7 L76.8,85.5" id="Shape" stroke="#000000" stroke-width="1.4173" stroke-linecap="round"></path>
                <path d="M66.8,56.4 L66.8,85.5" id="Shape" stroke="#000000" stroke-width="1.4173" stroke-linecap="round"></path>
                <path d="M14.2,60.7 L54.2,60.7 C55.6,60.7 56.8,61.9 56.8,63.3 L56.8,82.5 C56.8,84 55.6,85.1 54.2,85.1 L14.2,85.1 C12.8,85.1 11.6,83.9 11.6,82.5 L11.6,63.3 C11.6,61.9 12.7,60.7 14.2,60.7 Z" id="Shape" stroke="#000000" stroke-width="1.4173"></path>
                <rect id="Rectangle-path" stroke="#000000" stroke-width="1.4173" x="8.4" y="85.2" width="51.6" height="3.6"></rect>
                <path d="M0.5,88.8 L92.1,88.8" id="Shape" stroke="#000000" stroke-width="1.4173" stroke-linecap="round"></path>
                <path d="M25.9,45.1 L40.5,45.1 M25.9,45.1 C20.6,45.1 15.7,49.5 15.7,55.3 L15.7,56.9" id="Shape" stroke="#000000" stroke-width="1.4173" stroke-linecap="round"></path>
                <path d="M23.5,54.1 L23.5,57.6" id="Shape" stroke="#000000" stroke-width="1.4173" stroke-linecap="round"></path>
                <path d="M44.9,54.1 L44.9,57.6" id="Shape" stroke="#000000" stroke-width="1.4173" stroke-linecap="round"></path>
                <path d="M56.7,34.7 L56.7,57.6" id="Shape" stroke="#000000" stroke-width="1.4173" stroke-linecap="round"></path>
                <path d="M52.8,81.9 L46.2,81.9" id="Shape" stroke="#000000" stroke-width="1.4173" stroke-linecap="round"></path>
                <path d="M44.2,42 L51.1,28.6 C52.9,25.2 54.9,23 59,23 M56.7,34.7 L52,46.9 C50.3,51.2 41.1,48.9 44.1,42 M76.8,56.2 C78.6,56.2 84.1,53.4 84.1,48.6 L84.1,32.7 C84.1,27.2 79.5,23.1 74.5,23.1 L59,23.1" id="Shape" stroke="#000000" stroke-width="1.4173" stroke-linecap="round"></path>
                <path d="M65.5,24.7 L68,24.7 C68.3,24.7 68.6,24.9 68.6,25.3 L68.6,27.6 C68.6,27.9 68.4,28.2 68,28.2 L65.5,28.2 C65.2,28.2 64.9,28 64.9,27.6 L64.9,25.3 C65,25 65.2,24.7 65.5,24.7 Z" id="Shape" stroke="#000000" stroke-width="1.4173"></path>
                <polygon id="Shape" stroke="#000000" stroke-width="1.4173" points="65.5 28.1 68 28.1 68.9 46.4 66.8 48.3 64.7 46.4"></polygon>
                <g transform="translate(25.000000, 20.000000)" id="Shape" stroke="#000000" stroke-width="1.4173" stroke-linecap="round">
                    <path d="M9.2,0.9 C3.6,0.9 0.4,4.7 0.4,10.8 C1.2,8.4 4.5,9.3 4.6,5.8 C6.7,6 7.6,8.2 9.5,8.4 C12.2,8.6 15.6,6.2 18,10.8 C18,4.6 14.8,0.9 9.2,0.9 Z" stroke-linejoin="round"></path>
                    <path d="M8.5,22.8 C7.6,22.8 6.9,22.6 6.2,22.2 C5.3,21.7 5,20.9 4.4,19.9 C3,17.6 1.6,14.2 1.2,10.1 M17.2,10 C16.8,14.1 15.4,17.5 14,19.8 C13.3,20.8 13.1,21.6 12.2,22.1 C11.5,22.5 10.7,22.7 9.9,22.7 L8.6,22.7"></path>
                </g>
                <g transform="translate(58.000000, 0.000000)" id="Shape" stroke="#000000" stroke-width="1.4173" stroke-linecap="round">
                    <path d="M8.8,0.3 C3.7,0.3 0.8,3.7 0.8,9.3 C1.5,7.1 4.5,8 4.6,4.8 C6.5,5 7.3,7 9.1,7.2 C11.6,7.4 14.6,5.2 16.8,9.4 C16.8,3.7 13.9,0.3 8.8,0.3 Z" stroke-linejoin="round"></path>
                    <path d="M8.2,20.2 C7.4,20.2 6.7,20 6.1,19.6 C5.3,19.1 5,18.4 4.4,17.5 C3.1,15.5 1.9,12.4 1.5,8.6 M16.1,8.6 C15.7,12.4 14.5,15.4 13.2,17.5 C12.6,18.5 12.4,19.2 11.5,19.6 C10.9,20 10.2,20.2 9.4,20.2 L8.2,20.2"></path>
                </g>
                <path d="M34.2,70.4 C32.8,70.4 31.7,71.5 31.7,72.9 C31.7,74.3 32.8,75.4 34.2,75.4 C35.6,75.4 36.7,74.3 36.7,72.9" id="Shape" stroke="#000000" stroke-width="1.4173" stroke-linecap="round"></path>
                <circle id="Oval" fill="#000000" fill-rule="nonzero" cx="36.5" cy="70.7" r="1"></circle>
                <path d="M52.8,51.2 L52.8,57.6" id="Shape" stroke="#000000" stroke-width="1.4173" stroke-linecap="round"></path>
            </g>
        </g>
    </g>
</svg>