<svg xmlns="http://www.w3.org/2000/svg" width="17" height="17" viewBox="0 0 17 17">
  <metadata><?xpacket begin="﻿" id="W5M0MpCehiHzreSzNTczkc9d"?>
<x:xmpmeta xmlns:x="adobe:ns:meta/" x:xmptk="Adobe XMP Core 5.6-c142 79.160924, 2017/07/13-01:06:39        ">
   <rdf:RDF xmlns:rdf="http://www.w3.org/1999/02/22-rdf-syntax-ns#">
      <rdf:Description rdf:about=""/>
   </rdf:RDF>
</x:xmpmeta>
                                                                                                    
                                                                                                    
                                                                                                    
                                                                                                    
                                                                                                    
                                                                                                    
                                                                                                    
                                                                                                    
                                                                                                    
                                                                                                    
                                                                                                    
                                                                                                    
                                                                                                    
                                                                                                    
                                                                                                    
                                                                                                    
                                                                                                    
                                                                                                    
                                                                                                    
                                                                                                    
                           
<?xpacket end="w"?></metadata>
<defs>
    <style>
      .cls-1 {
        fill-rule: evenodd;
      }
    </style>
  </defs>
  <path id="refuse" class="cls-1" d="M722.5,334a8.5,8.5,0,1,0,5.89,14.628,0.346,0.346,0,1,0-.479-0.5,7.781,7.781,0,1,1,1.874-2.813,0.346,0.346,0,1,0,.645.249A8.5,8.5,0,0,0,722.5,334Zm1.165,9.233a0.346,0.346,0,1,0-.485.494l2.724,2.666a0.346,0.346,0,1,0,.484-0.494Zm-2.448-1.526a0.348,0.348,0,0,0,.49,0,0.346,0.346,0,0,0,0-.489l-2.608-2.609a0.346,0.346,0,0,0-.49.49Zm5.174-3.1a0.347,0.347,0,0,0-.49,0l-7.292,7.292a0.346,0.346,0,0,0,.49.49l7.292-7.292A0.347,0.347,0,0,0,726.391,338.609Z" transform="translate(-714 -334)"/>
</svg>
