<?xml version="1.0" encoding="UTF-8"?>
<svg width="96px" height="93px" viewBox="0 0 96 93" version="1.1" xmlns="http://www.w3.org/2000/svg" xmlns:xlink="http://www.w3.org/1999/xlink">
    <!-- Generator: Sketch 43.1 (39012) - http://www.bohemiancoding.com/sketch -->
    <title>Group</title>
    <desc>Created with Sketch.</desc>
    <defs></defs>
    <g id="Page-1" stroke="none" stroke-width="1" fill="none" fill-rule="evenodd">
        <g id="icons" transform="translate(-438.000000, -12.000000)">
            <g id="Group" transform="translate(429.000000, 0.000000)">
                <circle id="Oval" stroke="#000000" stroke-width="1.41728641" transform="translate(42.776690, 43.096130) rotate(-45.000000) translate(-42.776690, -43.096130) " cx="42.77669" cy="43.09613" r="30.1997104"></circle>
                <circle id="Oval" stroke="#000000" stroke-width="1.41728641" transform="translate(42.776590, 43.095630) rotate(-45.000000) translate(-42.776590, -43.095630) " cx="42.77659" cy="43.09563" r="24.6997631"></circle>
                <rect id="Rectangle-path" stroke="#000000" stroke-width="1.41728641" transform="translate(84.329300, 84.634830) rotate(-45.000000) translate(-84.329300, -84.634830) " x="78.4793561" y="67.6849926" width="11.6998878" height="33.8996749"></rect>
                <rect id="Rectangle-path" stroke="#000000" stroke-width="1.41728641" transform="translate(98.472830, 98.808130) rotate(-45.000000) translate(-98.472830, -98.808130) " x="94.5728674" y="95.7081597" width="7.7999252" height="6.19994054"></rect>
                <path d="M75,70 L66.6,61.7" id="Shape" stroke="#000000" stroke-width="1.4173"></path>
                <path d="M69.6,75.4 L61.2,67" id="Shape" stroke="#000000" stroke-width="1.4173"></path>
                <path d="M95.4,87.4 L87.1,95.8" id="Shape" stroke="#000000" stroke-width="1.4173"></path>
                <path d="M9.8,99.7 L76.5,99.7" id="Shape" stroke="#000000" stroke-width="1.4173"></path>
                <polyline id="Shape" stroke="#000000" stroke-width="1.4173" stroke-linecap="round" points="28.4 80.8 13.4 80.8 13.4 99.7"></polyline>
                <polyline id="Shape" stroke="#000000" stroke-width="1.4173" stroke-linecap="round" points="57.9 87.5 72.8 87.5 72.8 99.7"></polyline>
                <path d="M31.4,99.7 L31.4,74.9" id="Shape" stroke="#000000" stroke-width="1.4173" stroke-linecap="round"></path>
                <path d="M54.9,99.7 L54.9,74.9" id="Shape" stroke="#000000" stroke-width="1.4173" stroke-linecap="round"></path>
                <g transform="translate(18.000000, 96.000000)">
                    <path d="M10.4,0.8 L4.1,0.8" id="Shape" stroke="#000000" stroke-width="1.4173" stroke-linecap="round"></path>
                    <circle id="Oval" fill="#000000" fill-rule="nonzero" cx="1.5" cy="0.8" r="1"></circle>
                </g>
                <g transform="translate(57.000000, 96.000000)">
                    <path d="M0.9,0.8 L7.1,0.8" id="Shape" stroke="#000000" stroke-width="1.4173" stroke-linecap="round"></path>
                    <circle id="Oval" fill="#000000" fill-rule="nonzero" cx="9.8" cy="0.8" r="1"></circle>
                </g>
                <path d="M34.4,96.8 L51.8,96.8" id="Shape" stroke="#000000" stroke-width="1.4173" stroke-linecap="round"></path>
                <polyline id="Shape" stroke="#000000" stroke-width="1.4173" stroke-linecap="round" points="41.4 79.4 43.8 79.4 43.8 90.5"></polyline>
                <path d="M42.8,29.3 L36.3,29.3 C32.7,39.1 46.4,43.9 38,52.7 L42.8,52.7 L47.6,52.7 C39.2,43.9 52.8,39.1 49.3,29.3 L42.8,29.3 Z" id="Shape" stroke="#000000" stroke-width="1.4173"></path>
                <path d="M38.8,41.2 C25.5,37.5 28.6,26.7 35.8,31.3" id="Shape" stroke="#000000" stroke-width="1.4173"></path>
                <path d="M39.3,42.1 C39.6,43.7 38.1,44.6 37.1,43" id="Shape" stroke="#000000" stroke-width="1.4173" stroke-linecap="round"></path>
                <path d="M46.2,42.1 C45.9,43.7 47.4,44.6 48.4,43" id="Shape" stroke="#000000" stroke-width="1.4173" stroke-linecap="round"></path>
                <rect id="Rectangle-path" stroke="#000000" stroke-width="1.4173" x="34.2" y="52.7" width="17.1" height="2.7"></rect>
                <polyline id="Shape" stroke="#000000" stroke-width="1.4173" stroke-linecap="round" points="29.1 59.4 29.1 55.5 56.4 55.5 56.4 59.4"></polyline>
                <path d="M37.1,26.9 L48.4,26.9" id="Shape" stroke="#000000" stroke-width="1.4173" stroke-linecap="round"></path>
                <path d="M46.7,41.2 C60,37.5 56.9,26.7 49.7,31.3" id="Shape" stroke="#000000" stroke-width="1.4173"></path>
                <path d="M47,31.7 C47.1,34.8 46.3,36.5 44.6,39.6" id="Shape" stroke="#000000" stroke-width="1.4173" stroke-linecap="round"></path>
            </g>
        </g>
    </g>
</svg>